       <svg width="200" height="149" viewBox="0 0 151 70" version="1.1" xmlns="http://www.w3.org/2000/svg" >
	   <path d="M78.116 31.45V0h9.093c8.915 13.492 12.472 18.406 14.453 22.113h.09c-.316-3.306-.271-9.16-.271-14.341V0h7.07v31.45h-8.556c-2.97-4.691-13.145-20.325-15.038-23.9h-.088c.268 3.842.268 8.353.268 13.938v9.961h-7.021zM141.198 31.434l-8.175-10.985h-.092l-7.946 10.985h-8.318l11.997-16.074L116.995 0h9.173l7.585 10.136h.045L141.413 0h8.36l-12.252 15.004 12.624 16.445zM86.595 62.86L83.89 70h-7.804l12.544-31.45h9.757L111.594 70h-8.201l-2.927-7.14H86.595zm11.793-6.122c-2.927-7.182-4.346-10.901-5.097-13.27h-.044c-.668 2.321-2.351 7.103-4.699 13.27h9.84zM118.696 38.55h13.964c10.635 0 16.47 6.881 16.47 15.191 0 10.052-7.1 16.259-16.299 16.259h-14.123l-.012-31.45zm7.674 25.554h5.428c6.193 0 9.21-3.485 9.21-10.171 0-5.81-3.053-9.43-9.424-9.519h-5.52l.306 19.69zM42.402 45.67c.736 3.966 1.937 5.628 3.695 5.628 3.042 0 6.085-4.43 8.213-12h.183c-1.752 11.564-8.767 18.555-14.769 18.555-3.972 0-6.277-2.215-7.568-8.4-.451-2.214-.774-3.82-1.01-5l-9.128 12.778h-2.093l32.792-45.967h2.092L39.847 32.24c.457 2.415 1.234 6.504 2.55 13.418l.005.012zM12.471 57.23l14.75-20.69c-.493-2.62-1.29-6.785-2.582-13.429-.735-3.886-1.934-5.539-3.686-5.539-3.042 0-6.276 4.26-8.312 11.63h-.185c1.662-11.337 8.85-18.074 14.771-18.074 4.065 0 6.462 2.125 7.661 8.217.412 2.134.735 3.79.992 5.081l9.395-13.17h2.092L14.575 57.232h-2.104zM33.483 1.014C17.512 1.013 3.763 12.294.647 27.958c-3.117 15.664 5.266 31.349 20.02 37.461 14.756 6.112 31.774.95 40.647-12.33 8.873-13.28 7.13-30.978-4.164-42.27a33.476 33.476 0 0 0-23.667-9.805z">
	   </path>
	   </svg>
